<?xml version="1.0" encoding="utf-8"?>
<!-- Generator: Adobe Illustrator 15.0.2, SVG Export Plug-In . SVG Version: 6.00 Build 0)  -->
<!DOCTYPE svg PUBLIC "-//W3C//DTD SVG 1.1//EN" "http://www.w3.org/Graphics/SVG/1.1/DTD/svg11.dtd">
<svg version="1.1" id="Layer_1" xmlns="http://www.w3.org/2000/svg" xmlns:xlink="http://www.w3.org/1999/xlink" x="0px" y="0px"
	 width="187px" height="113px" viewBox="0 0 187 113" enable-background="new 0 0 187 113" xml:space="preserve">
<polygon fill="#FFFFFF" points="145.669,23.513 112.602,56.591 145.669,89.67 178.739,56.591 "/>
<polygon fill-rule="evenodd" clip-rule="evenodd" fill="#079948" points="122.28,56.641 145.67,33.242 145.67,23.526 
	112.566,56.641 145.67,89.756 145.67,80.039 "/>
<polygon fill="#079948" points="145.623,0 145.623,23.722 178.681,56.732 145.623,89.744 145.623,113 187,113 187,0 "/>
<g>
	<defs>
		<rect id="SVGID_1_" x="0" width="186.999" height="113"/>
	</defs>
	<clipPath id="SVGID_2_">
		<use xlink:href="#SVGID_1_"  overflow="visible"/>
	</clipPath>
	<path clip-path="url(#SVGID_2_)" fill="#079948" d="M5.97,25.533c0.346,0.081,0.713,0.122,1.06,0.122
		c0.326,0,0.672-0.041,0.999-0.122c1.915,5.624,4.258,11.33,5.521,14.305c-0.631-0.101-1.283-0.122-1.915-0.122
		c-0.673,0-1.528,0-2.159,0.122c-0.591-2.119-1.08-3.403-1.304-4.014c-0.692-0.021-1.385-0.062-2.119-0.062
		c-0.754,0-1.548,0.021-2.343,0.062c-0.347,0.998-0.876,2.507-1.222,4.014c-0.387-0.061-0.713-0.122-1.121-0.122
		c-0.204,0-0.693,0-1.141,0.122C1.468,37.209,4.564,29.547,5.97,25.533 M6.031,29.813l-1.731,4.462
		c0.55,0.041,1.101,0.062,1.65,0.062c0.571,0,1.141-0.041,1.712-0.062L6.031,29.813z"/>
	<path clip-path="url(#SVGID_2_)" fill="#079948" d="M20.46,32.202c-0.271-1.085-1.113-1.399-1.855-1.399
		c-0.286,0-1.612,0.029-1.612,1.242c0,0.899,0.642,1.157,2.754,1.999c0.414,0.171,0.984,0.514,1.37,1.1
		c0.329,0.485,0.428,1.056,0.428,1.613c0,1.855-1.327,3.254-3.795,3.254c-1.441,0-2.269-0.443-2.726-0.699
		c0.171-0.571,0.3-1.47,0.3-1.97h0.357c0.228,1.285,1.313,1.67,2.169,1.67c1.198,0,1.712-0.699,1.712-1.428
		c0-0.799-0.5-1.027-2.24-1.783c-1.298-0.572-2.184-1.314-2.184-2.884c0-1.97,1.313-3.083,3.468-3.083
		c1.355,0,2.083,0.386,2.64,0.686c-0.271,0.485-0.442,1.327-0.471,1.684H20.46z"/>
	<path clip-path="url(#SVGID_2_)" fill="#079948" d="M28.396,32.202c-0.271-1.085-1.113-1.399-1.855-1.399
		c-0.285,0-1.612,0.029-1.612,1.242c0,0.899,0.642,1.157,2.754,1.999c0.414,0.171,0.984,0.514,1.37,1.1
		c0.329,0.485,0.428,1.056,0.428,1.613c0,1.855-1.327,3.254-3.796,3.254c-1.441,0-2.269-0.443-2.726-0.699
		c0.171-0.571,0.3-1.47,0.3-1.97h0.357c0.228,1.285,1.313,1.67,2.169,1.67c1.198,0,1.711-0.699,1.711-1.428
		c0-0.799-0.5-1.027-2.24-1.783c-1.298-0.572-2.183-1.314-2.183-2.884c0-1.97,1.313-3.083,3.467-3.083
		c1.355,0,2.084,0.386,2.64,0.686c-0.271,0.485-0.442,1.327-0.471,1.684H28.396z"/>
	<path clip-path="url(#SVGID_2_)" fill="#079948" d="M36.414,40.024c-3.182,0-5.479-1.713-5.479-5.067
		c0-3.012,1.969-5.224,5.565-5.224c3.068,0,5.522,1.656,5.522,4.953C42.022,38.354,39.282,40.024,36.414,40.024 M36.528,30.747
		c-2.169,0-2.997,2.042-2.997,4.282c0,2.841,1.397,3.982,2.882,3.982c1.812,0,3.011-1.569,3.011-4.296
		C39.425,32.359,38.383,30.747,36.528,30.747"/>
	<path clip-path="url(#SVGID_2_)" fill="#079948" d="M51.886,32.131c-0.343-0.856-1.384-1.399-2.498-1.399
		c-2.183,0-3.239,1.885-3.239,4.14c0,2.398,1.198,4.097,3.41,4.097c1.127,0,1.927-0.471,2.683-1.114l0.242,0.143
		c-0.128,0.329-0.271,0.728-0.414,1.356c-0.957,0.457-2.012,0.643-3.054,0.643c-3.496,0-5.465-2.226-5.465-5.066
		c0-3.013,2.169-5.167,5.623-5.167c1.184,0,2.368,0.214,3.438,0.728c-0.271,0.542-0.37,1.342-0.413,1.641H51.886z"/>
	<path clip-path="url(#SVGID_2_)" fill="#079948" d="M56.817,39.838c-0.442-0.057-0.827-0.085-1.298-0.085
		c-0.442,0-0.899,0.028-1.342,0.085c0.144-1.256,0.144-4.467,0.144-5.153c0-1.484-0.015-3.34-0.129-4.753
		c0.385,0.057,0.828,0.086,1.342,0.086c0.584,0,1.098-0.057,1.298-0.086c-0.1,1.628-0.143,3.54-0.143,5.167
		C56.689,36.456,56.689,38.582,56.817,39.838"/>
	<path clip-path="url(#SVGID_2_)" fill="#079948" d="M62.119,29.818c0.243,0.057,0.5,0.086,0.742,0.086
		c0.229,0,0.471-0.029,0.7-0.086c1.341,3.94,2.982,7.937,3.866,10.021c-0.442-0.072-0.898-0.086-1.341-0.086
		c-0.471,0-1.07,0-1.513,0.086c-0.415-1.485-0.756-2.384-0.914-2.813c-0.485-0.013-0.97-0.042-1.483-0.042
		c-0.529,0-1.085,0.014-1.641,0.042c-0.243,0.7-0.613,1.756-0.856,2.813c-0.271-0.043-0.5-0.086-0.785-0.086
		c-0.143,0-0.484,0-0.799,0.086C58.966,37.997,61.135,32.63,62.119,29.818 M62.162,32.816l-1.213,3.126
		c0.385,0.028,0.771,0.042,1.155,0.042c0.4,0,0.8-0.028,1.199-0.042L62.162,32.816z"/>
	<path clip-path="url(#SVGID_2_)" fill="#079948" d="M69.688,31.161c-0.684,0-1.598,0.014-2.654,0.128
		c0.058-0.242,0.072-0.485,0.072-0.728c0-0.214-0.029-0.428-0.072-0.628c0.729,0.085,2.169,0.114,3.853,0.114
		c1.77,0,2.925-0.029,3.852-0.114c-0.042,0.257-0.071,0.471-0.071,0.686c0,0.228,0.043,0.513,0.071,0.67
		c-0.841-0.1-1.754-0.128-2.553-0.128c-0.029,0.628-0.029,1.598-0.029,2.683c0,0.842-0.014,2.626-0.014,3.568
		c0,0.856,0.029,1.642,0.1,2.427c-0.414-0.058-1.013-0.086-1.412-0.086c-0.4,0-0.885,0.043-1.27,0.086
		c0.143-0.671,0.143-2.455,0.143-3.255C69.702,34.786,69.702,32.874,69.688,31.161"/>
	<path clip-path="url(#SVGID_2_)" fill="#079948" d="M78.713,39.838c-0.442-0.057-0.827-0.085-1.298-0.085
		c-0.442,0-0.898,0.028-1.342,0.085c0.144-1.256,0.144-4.467,0.144-5.153c0-1.484-0.015-3.34-0.129-4.753
		c0.386,0.057,0.828,0.086,1.342,0.086c0.585,0,1.098-0.057,1.298-0.086c-0.1,1.628-0.143,3.54-0.143,5.167
		C78.585,36.456,78.585,38.582,78.713,39.838"/>
	<path clip-path="url(#SVGID_2_)" fill="#079948" d="M86.043,40.024c-3.182,0-5.479-1.713-5.479-5.067
		c0-3.012,1.969-5.224,5.565-5.224c3.068,0,5.522,1.656,5.522,4.953C91.651,38.354,88.912,40.024,86.043,40.024 M86.157,30.747
		c-2.169,0-2.996,2.042-2.996,4.282c0,2.841,1.398,3.982,2.882,3.982c1.812,0,3.011-1.569,3.011-4.296
		C89.054,32.359,88.013,30.747,86.157,30.747"/>
	<path clip-path="url(#SVGID_2_)" fill="#079948" d="M101.045,33.273c0-0.271-0.072-2.612-0.186-3.34
		c0.228,0.057,0.57,0.085,0.799,0.085c0.256,0,0.514-0.028,0.771-0.085c-0.2,1.228-0.257,5.239-0.257,6.823
		c0,1.028,0,2.069,0.114,3.083c-0.3-0.043-0.558-0.086-0.843-0.086c-0.299,0-0.57,0.029-0.827,0.086
		c-0.457-0.628-0.628-0.828-2.155-2.626l-3.652-4.111v3.569c0,0.643,0.114,2.569,0.172,3.169c-0.257-0.043-0.515-0.086-0.771-0.086
		c-0.285,0-0.471,0.043-0.741,0.086c0.214-2.626,0.214-3.255,0.214-5.609c0-2.569,0-3.284-0.101-4.297
		c0.329,0.043,0.643,0.085,0.957,0.085c0.285,0,0.57-0.042,0.842-0.085c1.397,1.827,4.466,5.267,5.665,6.581V33.273z"/>
	<path clip-path="url(#SVGID_2_)" fill="#079948" d="M3.482,58.809c0,0.642,0.015,1.527,0.114,2.17
		c-0.299-0.058-0.742-0.087-1.227-0.087c-0.457,0-0.956,0.044-1.427,0.087c0.114-0.686,0.129-1.398,0.129-2.1L1.056,53.37
		c0-0.756-0.043-1.499-0.1-2.298c0.813,0.1,1.626,0.114,2.383,0.114c0.971,0,2.155-0.042,3.368-0.114
		c-0.043,0.256-0.071,0.5-0.071,0.728c0,0.229,0.028,0.471,0.071,0.686C5.352,52.3,4.195,52.3,3.525,52.3
		c-0.014,0.428-0.043,1.142-0.043,1.584v1.37c1.157,0,1.983,0,3.125-0.157c-0.029,0.186-0.072,0.471-0.072,0.657
		c0,0.242,0.043,0.528,0.072,0.713c-0.686-0.114-1.328-0.128-3.125-0.128V58.809z"/>
	<path clip-path="url(#SVGID_2_)" fill="#079948" d="M13.499,61.163c-3.182,0-5.479-1.713-5.479-5.067
		c0-3.012,1.969-5.224,5.565-5.224c3.068,0,5.522,1.656,5.522,4.953C19.106,59.493,16.367,61.163,13.499,61.163 M13.613,51.886
		c-2.169,0-2.996,2.042-2.996,4.282c0,2.84,1.397,3.981,2.882,3.981c1.813,0,3.011-1.569,3.011-4.295
		C16.509,53.499,15.468,51.886,13.613,51.886"/>
	<path clip-path="url(#SVGID_2_)" fill="#079948" d="M26.049,56.111l2.211,3.497c0.228,0.357,0.742,1.057,1.027,1.284l-0.043,0.087
		c-0.485-0.072-0.984-0.087-1.484-0.087c-0.614,0-0.957,0.029-1.498,0.087c-0.057-0.129-0.3-0.7-0.828-1.499l-1.941-3.012
		c-0.014-0.014-0.028-0.029-0.057-0.029c-0.015,0-0.015,0.043-0.015,0.085c0,1.342,0.015,2.127,0.043,3.183
		c0.014,0.43,0.014,0.856,0.071,1.271c-0.399-0.058-0.856-0.087-1.27-0.087c-0.372,0-0.942,0.043-1.299,0.087
		c0.128-1.314,0.114-2.656,0.114-5.525c0-2.211,0-3.539-0.114-4.381c0.628,0.057,1.198,0.085,1.556,0.085
		c0.884,0,1.783-0.085,2.667-0.085c0.514,0,3.111,0,3.111,2.54C28.303,55.311,26.862,56.011,26.049,56.111 M23.423,55.654
		c0.114,0.015,0.257,0.015,0.428,0.015c0.528,0,1.998,0,1.998-1.899c0-1.627-1.042-1.712-1.855-1.712c-0.186,0-0.356,0-0.542,0.028
		L23.423,55.654z"/>
	<path clip-path="url(#SVGID_2_)" fill="#079948" d="M35.592,53.341c0-0.913-0.071-1.699-0.143-2.269
		c0.457,0.071,0.914,0.085,1.384,0.085c0.442,0,0.87-0.028,1.298-0.085c-0.1,1.042-0.157,2.24-0.157,2.826v4.639
		c0,0.414,0.014,0.842,0.028,1.256c0.928,0,2.482,0,3.354-0.186c-0.058,0.343-0.072,0.514-0.072,0.686
		c0,0.214,0.043,0.484,0.072,0.686c-0.714-0.058-1.641-0.115-2.44-0.115c-0.999,0-2.155,0.071-3.453,0.115
		c0.085-0.757,0.128-1.585,0.128-2.599V53.341z"/>
	<path clip-path="url(#SVGID_2_)" fill="#079948" d="M42.827,52.956c0-0.643-0.043-1.285-0.128-1.884
		c1.242,0.058,2.426,0.115,3.31,0.115c0.785,0,1.527-0.028,2.526-0.115c-0.042,0.214-0.071,0.429-0.071,0.657
		c0,0.242,0.015,0.486,0.071,0.713c-0.941-0.17-2.297-0.185-3.239-0.185c-0.029,0.514-0.043,1.014-0.043,1.528v1.456
		c1.156,0,2.084,0,3.182-0.157c-0.042,0.229-0.072,0.457-0.072,0.686c0,0.228,0.043,0.457,0.072,0.67
		c-1.056-0.114-1.869-0.114-3.182-0.114v2.84c0,0.214,0.014,0.414,0.029,0.613c0.713,0,2.226-0.014,3.21-0.214
		c-0.043,0.243-0.071,0.472-0.071,0.671c0,0.243,0.028,0.485,0.071,0.742c-0.913-0.085-2.24-0.113-3.225-0.113
		c-0.913,0-1.841,0.057-2.64,0.113c0.129-0.699,0.186-2.068,0.186-2.854L42.827,52.956z"/>
	<path clip-path="url(#SVGID_2_)" fill="#079948" d="M53.54,50.958c0.243,0.057,0.5,0.086,0.742,0.086
		c0.229,0,0.471-0.029,0.7-0.086c1.341,3.939,2.982,7.937,3.867,10.021c-0.442-0.072-0.899-0.087-1.341-0.087
		c-0.471,0-1.07,0-1.513,0.087c-0.415-1.485-0.756-2.384-0.913-2.813c-0.485-0.013-0.971-0.042-1.484-0.042
		c-0.528,0-1.084,0.015-1.641,0.042c-0.243,0.701-0.614,1.757-0.857,2.813c-0.271-0.044-0.5-0.087-0.785-0.087
		c-0.143,0-0.484,0-0.798,0.087C50.386,59.137,52.556,53.77,53.54,50.958 M53.583,53.955l-1.212,3.126
		c0.385,0.028,0.771,0.042,1.155,0.042c0.4,0,0.799-0.028,1.199-0.042L53.583,53.955z"/>
	<path clip-path="url(#SVGID_2_)" fill="#079948" d="M65.298,56.111l2.211,3.497c0.228,0.357,0.742,1.057,1.027,1.284l-0.043,0.087
		c-0.484-0.072-0.984-0.087-1.483-0.087c-0.614,0-0.957,0.029-1.499,0.087c-0.057-0.129-0.299-0.7-0.827-1.499l-1.941-3.012
		c-0.014-0.014-0.028-0.029-0.057-0.029c-0.014,0-0.014,0.043-0.014,0.085c0,1.342,0.014,2.127,0.043,3.183
		c0.015,0.43,0.015,0.856,0.071,1.271c-0.399-0.058-0.855-0.087-1.269-0.087c-0.372,0-0.942,0.043-1.299,0.087
		c0.128-1.314,0.114-2.656,0.114-5.525c0-2.211,0-3.539-0.114-4.381c0.628,0.057,1.199,0.085,1.556,0.085
		c0.885,0,1.783-0.085,2.668-0.085c0.514,0,3.111,0,3.111,2.54C67.552,55.311,66.111,56.011,65.298,56.111 M62.672,55.654
		c0.114,0.015,0.256,0.015,0.428,0.015c0.529,0,1.998,0,1.998-1.899c0-1.627-1.042-1.712-1.855-1.712c-0.185,0-0.356,0-0.542,0.028
		L62.672,55.654z"/>
	<path clip-path="url(#SVGID_2_)" fill="#079948" d="M77.49,54.412c0-0.271-0.071-2.611-0.186-3.34
		c0.229,0.057,0.571,0.085,0.799,0.085c0.256,0,0.514-0.028,0.771-0.085c-0.2,1.228-0.256,5.239-0.256,6.822
		c0,1.028,0,2.07,0.114,3.084c-0.3-0.044-0.557-0.087-0.843-0.087c-0.299,0-0.57,0.029-0.827,0.087
		c-0.457-0.629-0.628-0.829-2.155-2.627l-3.653-4.111v3.569c0,0.642,0.114,2.569,0.171,3.169c-0.257-0.044-0.513-0.087-0.771-0.087
		c-0.286,0-0.471,0.043-0.742,0.087c0.215-2.627,0.215-3.255,0.215-5.61c0-2.569,0-3.284-0.101-4.296
		c0.329,0.042,0.643,0.085,0.957,0.085c0.285,0,0.571-0.042,0.842-0.085c1.398,1.827,4.466,5.267,5.665,6.58V54.412z"/>
	<path clip-path="url(#SVGID_2_)" fill="#079948" d="M83.691,60.978c-0.442-0.057-0.828-0.085-1.298-0.085
		c-0.442,0-0.899,0.028-1.342,0.085c0.143-1.256,0.143-4.467,0.143-5.152c0-1.484-0.014-3.34-0.129-4.753
		c0.386,0.058,0.828,0.086,1.342,0.086c0.585,0,1.098-0.058,1.298-0.086c-0.099,1.628-0.143,3.54-0.143,5.167
		C83.563,57.596,83.563,59.722,83.691,60.978"/>
	<path clip-path="url(#SVGID_2_)" fill="#079948" d="M93.494,54.412c0-0.271-0.072-2.611-0.186-3.34
		c0.229,0.057,0.57,0.085,0.799,0.085c0.257,0,0.514-0.028,0.771-0.085c-0.201,1.228-0.258,5.239-0.258,6.822
		c0,1.028,0,2.07,0.114,3.084c-0.3-0.044-0.557-0.087-0.842-0.087c-0.3,0-0.571,0.029-0.827,0.087
		c-0.457-0.629-0.628-0.829-2.155-2.627l-3.653-4.111v3.569c0,0.642,0.115,2.569,0.171,3.169c-0.256-0.044-0.513-0.087-0.771-0.087
		c-0.285,0-0.471,0.043-0.742,0.087c0.214-2.627,0.214-3.255,0.214-5.61c0-2.569,0-3.284-0.101-4.296
		c0.329,0.042,0.643,0.085,0.957,0.085c0.285,0,0.571-0.042,0.842-0.085c1.398,1.827,4.466,5.267,5.665,6.58V54.412z"/>
	<path clip-path="url(#SVGID_2_)" fill="#079948" d="M105.274,53.456c-0.215-0.37-0.899-1.556-2.641-1.556
		c-1.912,0-3.481,1.384-3.481,4.154c0,2.44,1.185,4.11,3.211,4.11c0.457,0,0.914-0.071,1.355-0.199
		c0.015-0.429,0.028-0.843,0.028-1.271c0-0.756-0.057-1.513-0.157-2.269c0.457,0.071,0.914,0.085,1.385,0.085
		c0.428,0,0.757-0.014,1.241-0.085c-0.058,0.285-0.128,1.027-0.128,1.726c0,0.386,0,1.441,0.1,2.298
		c-1.37,0.343-2.769,0.7-4.167,0.7c-3.238,0-5.465-2.041-5.465-5.024c0-2.598,1.712-5.239,5.937-5.239
		c1.142,0,2.468,0.228,3.524,0.828c-0.329,0.742-0.442,1.284-0.514,1.698L105.274,53.456z"/>
	<path clip-path="url(#SVGID_2_)" fill="#079948" d="M2.944,73.439c-0.685,0-1.598,0.014-2.654,0.128
		c0.057-0.242,0.072-0.485,0.072-0.728c0-0.215-0.029-0.429-0.072-0.628c0.728,0.085,2.169,0.114,3.853,0.114
		c1.77,0,2.925-0.029,3.852-0.114c-0.042,0.256-0.071,0.471-0.071,0.686c0,0.228,0.043,0.513,0.071,0.67
		c-0.841-0.1-1.754-0.128-2.553-0.128c-0.029,0.628-0.029,1.598-0.029,2.683c0,0.843-0.014,2.627-0.014,3.569
		c0,0.855,0.029,1.641,0.1,2.426c-0.414-0.058-1.013-0.086-1.412-0.086c-0.4,0-0.885,0.044-1.27,0.086
		c0.143-0.671,0.143-2.455,0.143-3.255C2.958,77.064,2.958,75.151,2.944,73.439"/>
	<path clip-path="url(#SVGID_2_)" fill="#079948" d="M9.353,74.095c0-0.642-0.043-1.284-0.128-1.883
		c1.242,0.057,2.426,0.114,3.31,0.114c0.785,0,1.527-0.029,2.526-0.114c-0.042,0.213-0.071,0.428-0.071,0.655
		c0,0.243,0.014,0.486,0.071,0.714c-0.941-0.17-2.297-0.185-3.239-0.185c-0.029,0.514-0.043,1.013-0.043,1.527v1.455
		c1.156,0,2.084,0,3.182-0.156c-0.042,0.229-0.072,0.457-0.072,0.686c0,0.228,0.043,0.456,0.072,0.67
		c-1.056-0.113-1.869-0.113-3.182-0.113v2.84c0,0.214,0.014,0.413,0.028,0.613c0.713,0,2.226-0.014,3.211-0.214
		c-0.043,0.242-0.072,0.472-0.072,0.671c0,0.242,0.029,0.485,0.072,0.742c-0.913-0.085-2.24-0.114-3.225-0.114
		c-0.913,0-1.841,0.057-2.64,0.114c0.129-0.699,0.186-2.069,0.186-2.854L9.353,74.095z"/>
	<path clip-path="url(#SVGID_2_)" fill="#079948" d="M24.706,74.41c-0.343-0.856-1.384-1.399-2.498-1.399
		c-2.183,0-3.239,1.885-3.239,4.14c0,2.397,1.199,4.097,3.41,4.097c1.127,0,1.927-0.472,2.683-1.114l0.242,0.143
		c-0.128,0.328-0.271,0.729-0.414,1.356c-0.956,0.457-2.012,0.643-3.054,0.643c-3.496,0-5.465-2.227-5.465-5.067
		c0-3.012,2.169-5.167,5.623-5.167c1.184,0,2.368,0.214,3.438,0.729c-0.271,0.542-0.371,1.342-0.414,1.642H24.706z"/>
	<path clip-path="url(#SVGID_2_)" fill="#079948" d="M27.083,74.424c0-0.799-0.072-1.698-0.114-2.212
		c0.428,0.057,0.87,0.085,1.34,0.085c0.585,0,1.085-0.057,1.299-0.085c-0.1,1.327-0.1,2.212-0.1,3.968
		c0.756,0.028,1.37,0.043,2.011,0.043c0.614,0,1.256,0,2.07-0.043v-1.827c0-0.585-0.058-1.584-0.114-2.141
		c0.3,0.028,0.914,0.085,1.356,0.085c0.484,0,1.098-0.057,1.313-0.085c-0.128,1.228-0.128,4.11-0.128,5.523
		c0,1.727,0,3.197,0.143,4.382c-0.442-0.058-0.884-0.085-1.313-0.085c-0.471,0-0.942,0.027-1.398,0.085
		c0.056-0.357,0.143-0.913,0.143-1.956v-2.769c-0.614-0.028-1.313-0.043-2.084-0.043c-0.742,0-1.483,0.015-1.997,0.043v3.012
		c0,0.6,0.043,1.342,0.085,1.713c-0.257-0.028-0.784-0.085-1.298-0.085c-0.314,0-0.913,0.027-1.341,0.085
		c0.071-0.713,0.128-1.37,0.128-2.569V74.424z"/>
	<path clip-path="url(#SVGID_2_)" fill="#079948" d="M45.917,75.552c0-0.271-0.072-2.612-0.186-3.34
		c0.229,0.057,0.57,0.085,0.799,0.085c0.256,0,0.514-0.028,0.771-0.085c-0.2,1.228-0.256,5.238-0.256,6.822
		c0,1.027,0,2.069,0.114,3.083c-0.299-0.043-0.557-0.086-0.842-0.086c-0.3,0-0.57,0.028-0.827,0.086
		c-0.457-0.628-0.628-0.828-2.155-2.627l-3.653-4.11v3.568c0,0.643,0.115,2.57,0.171,3.169c-0.256-0.043-0.513-0.086-0.771-0.086
		c-0.285,0-0.471,0.043-0.742,0.086c0.214-2.627,0.214-3.255,0.214-5.609c0-2.569,0-3.283-0.101-4.296
		c0.328,0.042,0.642,0.085,0.957,0.085c0.285,0,0.57-0.043,0.842-0.085c1.398,1.826,4.466,5.266,5.665,6.58V75.552z"/>
	<path clip-path="url(#SVGID_2_)" fill="#079948" d="M54.563,82.303c-3.182,0-5.479-1.713-5.479-5.067
		c0-3.011,1.969-5.224,5.565-5.224c3.068,0,5.522,1.656,5.522,4.953C60.17,80.633,57.431,82.303,54.563,82.303 M54.677,73.025
		c-2.169,0-2.997,2.041-2.997,4.282c0,2.84,1.398,3.981,2.882,3.981c1.812,0,3.011-1.57,3.011-4.296
		C57.573,74.638,56.532,73.025,54.677,73.025"/>
	<path clip-path="url(#SVGID_2_)" fill="#079948" d="M62.08,74.48c0-0.913-0.072-1.698-0.143-2.269
		c0.457,0.071,0.913,0.085,1.384,0.085c0.442,0,0.87-0.028,1.298-0.085c-0.1,1.042-0.157,2.24-0.157,2.825v4.64
		c0,0.413,0.014,0.842,0.029,1.255c0.927,0,2.482,0,3.354-0.185c-0.058,0.342-0.072,0.514-0.072,0.685
		c0,0.215,0.043,0.485,0.072,0.686c-0.714-0.058-1.641-0.114-2.44-0.114c-0.999,0-2.155,0.071-3.453,0.114
		c0.085-0.756,0.128-1.585,0.128-2.598V74.48z"/>
	<path clip-path="url(#SVGID_2_)" fill="#079948" d="M74.068,82.303c-3.182,0-5.479-1.713-5.479-5.067
		c0-3.011,1.969-5.224,5.565-5.224c3.068,0,5.522,1.656,5.522,4.953C79.676,80.633,76.937,82.303,74.068,82.303 M74.182,73.025
		c-2.169,0-2.997,2.041-2.997,4.282c0,2.84,1.399,3.981,2.883,3.981c1.812,0,3.011-1.57,3.011-4.296
		C77.079,74.638,76.038,73.025,74.182,73.025"/>
	<path clip-path="url(#SVGID_2_)" fill="#079948" d="M89.883,74.595c-0.215-0.37-0.899-1.556-2.641-1.556
		c-1.911,0-3.48,1.385-3.48,4.154c0,2.44,1.184,4.11,3.21,4.11c0.457,0,0.914-0.071,1.355-0.2c0.014-0.428,0.029-0.842,0.029-1.271
		c0-0.755-0.058-1.513-0.157-2.269c0.457,0.071,0.913,0.085,1.384,0.085c0.428,0,0.756-0.014,1.242-0.085
		c-0.058,0.286-0.128,1.026-0.128,1.727c0,0.386,0,1.441,0.1,2.298c-1.37,0.343-2.769,0.7-4.167,0.7
		c-3.239,0-5.464-2.041-5.464-5.024c0-2.598,1.711-5.239,5.935-5.239c1.142,0,2.469,0.229,3.525,0.829
		c-0.329,0.741-0.442,1.284-0.513,1.698L89.883,74.595z"/>
	<path clip-path="url(#SVGID_2_)" fill="#079948" d="M97.374,80.504c0,0.515,0.085,1.142,0.143,1.613
		c-0.429-0.058-0.999-0.085-1.342-0.085c-0.285,0-0.856,0.027-1.341,0.085c0.129-0.928,0.129-1.499,0.129-2.341v-1.884l-2.07-3.825
		c-0.27-0.485-0.698-1.213-1.126-1.855c0.528,0.042,1.056,0.085,1.583,0.085c0.486,0,0.971-0.043,1.456-0.085
		c0.242,0.628,0.542,1.27,0.885,1.97c0.171,0.343,0.956,1.855,1.099,2.17c0.471-0.872,1.698-3.313,1.94-4.14
		c0.285,0.042,0.556,0.085,0.913,0.085c0.314,0,0.6-0.043,0.842-0.085c-0.827,1.07-2.312,3.867-3.11,5.523V80.504z"/>
	<path clip-path="url(#SVGID_2_)" fill="#079948" d="M139.572,46.356c0.41,0.097,0.845,0.145,1.255,0.145
		c0.387,0,0.798-0.048,1.184-0.145c2.271,6.668,5.048,13.431,6.545,16.958c-0.748-0.12-1.521-0.145-2.27-0.145
		c-0.798,0-1.812,0-2.561,0.145c-0.701-2.513-1.279-4.034-1.546-4.759c-0.821-0.024-1.642-0.072-2.511-0.072
		c-0.895,0-1.836,0.024-2.777,0.072c-0.411,1.184-1.039,2.972-1.449,4.759c-0.459-0.073-0.845-0.145-1.329-0.145
		c-0.241,0-0.821,0-1.352,0.145C134.235,60.198,137.905,51.115,139.572,46.356 M139.644,51.429l-2.053,5.29
		c0.652,0.048,1.304,0.073,1.956,0.073c0.676,0,1.353-0.048,2.028-0.073L139.644,51.429z"/>
	<path clip-path="url(#SVGID_2_)" fill="#079948" d="M150.717,54.267c0-1.083-0.084-2.013-0.169-2.689
		c0.541,0.084,1.082,0.102,1.641,0.102c0.524,0,1.031-0.035,1.538-0.102c-0.118,1.235-0.186,2.655-0.186,3.349v5.495
		c0,0.491,0.017,0.999,0.034,1.49c1.099,0,2.941,0,3.973-0.221c-0.068,0.405-0.084,0.608-0.084,0.812
		c0,0.254,0.05,0.575,0.084,0.812c-0.846-0.067-1.944-0.135-2.892-0.135c-1.184,0-2.553,0.085-4.091,0.135
		c0.101-0.896,0.151-1.877,0.151-3.078V54.267z"/>
	<path clip-path="url(#SVGID_2_)" fill="#079948" d="M161.572,53.033c-0.812,0-1.894,0.017-3.145,0.152
		c0.067-0.288,0.084-0.575,0.084-0.863c0-0.254-0.034-0.507-0.084-0.744c0.861,0.101,2.569,0.135,4.564,0.135
		c2.097,0,3.466-0.034,4.565-0.135c-0.052,0.304-0.085,0.558-0.085,0.812c0,0.27,0.051,0.608,0.085,0.795
		c-0.998-0.119-2.08-0.152-3.027-0.152c-0.033,0.743-0.033,1.894-0.033,3.179c0,0.998-0.018,3.112-0.018,4.228
		c0,1.015,0.033,1.944,0.119,2.875c-0.49-0.067-1.201-0.101-1.674-0.101c-0.474,0-1.048,0.05-1.505,0.101
		c0.168-0.795,0.168-2.908,0.168-3.855C161.587,57.328,161.587,55.062,161.572,53.033"/>
</g>
</svg>
